<?xml version="1.0" encoding="utf-8"?>
<!-- Generator: Adobe Illustrator 23.0.2, SVG Export Plug-In . SVG Version: 6.00 Build 0)  -->
<svg version="1.2" baseProfile="tiny" id="Layer_2" xmlns="http://www.w3.org/2000/svg" xmlns:xlink="http://www.w3.org/1999/xlink"
	 x="0px" y="0px" viewBox="0 0 512 512" xml:space="preserve">
<path fill="none" stroke="#FFFFFF" stroke-width="2" stroke-miterlimit="10" d="M192.103,28.557
	c-0.427,1.669,0.529,3.378,2.135,3.818c2.007,0.55,4.066-0.695,4.599-2.781c0.666-2.607-0.827-5.278-3.335-5.966
	c-3.136-0.859-6.353,1.086-7.186,4.346c-1.041,4.074,1.292,8.247,5.212,9.321c4.9,1.343,9.927-1.697,11.228-6.79
	c1.627-6.366-2.019-12.886-8.143-14.565c-1.455-0.399-2.917-0.55-4.346-0.479c-6.086,0.303-11.551,4.644-13.199,11.088
	c-2.542,9.946,3.154,20.135,12.723,22.757c11.962,3.278,24.235-4.144,27.413-16.577l73.137-0.07
	c3.154,12.427,15.413,19.825,27.381,16.524c9.574-2.641,15.29-12.84,12.767-22.782c-1.606-6.326-6.898-10.616-12.851-11.043
	c-1.531-0.11-3.106,0.036-4.673,0.468c-6.128,1.69-9.786,8.218-8.171,14.58c1.292,5.09,6.313,8.12,11.215,6.768
	c3.922-1.082,6.263-5.259,5.229-9.331c-0.827-3.258-4.041-5.197-7.178-4.332c-2.51,0.692-4.008,3.366-3.347,5.972
	c0.529,2.085,2.586,3.326,4.594,2.772c1.606-0.443,2.565-2.154,2.142-3.822"/>
<line fill="none" stroke="#FFFFFF" stroke-width="2" stroke-miterlimit="10" x1="193.085" y1="15.14" x2="320" y2="15.14"/>
<rect x="207.009" y="48.767" fill="none" stroke="#FFFFFF" stroke-width="2" stroke-miterlimit="10" width="97.983" height="429.271"/>
<rect x="183.864" y="478.038" fill="none" stroke="#FFFFFF" stroke-width="2" stroke-miterlimit="10" width="144.271" height="13.661"/>
<rect x="160" y="491.699" fill="none" stroke="#FFFFFF" stroke-width="2" stroke-miterlimit="10" width="192" height="13.661"/>
<line fill="none" stroke="#FFFFFF" stroke-width="2" stroke-miterlimit="10" x1="256" y1="237" x2="256" y2="468.581"/>
<line fill="none" stroke="#FFFFFF" stroke-width="2" stroke-miterlimit="10" x1="256" y1="58" x2="256" y2="87"/>
<line fill="none" stroke="#FFFFFF" stroke-width="2" stroke-miterlimit="10" x1="276" y1="58" x2="276" y2="87"/>
<line fill="none" stroke="#FFFFFF" stroke-width="2" stroke-miterlimit="10" x1="235" y1="58" x2="235" y2="87"/>
<line fill="none" stroke="#FFFFFF" stroke-width="2" stroke-miterlimit="10" x1="276" y1="237" x2="276" y2="468.581"/>
<line fill="none" stroke="#FFFFFF" stroke-width="2" stroke-miterlimit="10" x1="235" y1="237" x2="235" y2="468.581"/>
<polyline fill="none" stroke="#FFFFFF" stroke-width="2" stroke-miterlimit="10" points="291,222 223,222 257,222 257,102 289,102 
	221,102 "/>
</svg>
