<?xml version="1.0" encoding="utf-8"?>
<!-- Generator: Adobe Illustrator 23.0.2, SVG Export Plug-In . SVG Version: 6.00 Build 0)  -->
<svg version="1.2" baseProfile="tiny" id="Layer_1" xmlns="http://www.w3.org/2000/svg" xmlns:xlink="http://www.w3.org/1999/xlink"
	 x="0px" y="0px" viewBox="0 0 512 512" xml:space="preserve">
<g>
	<g>
		
			<rect x="227.929" y="69.662" transform="matrix(0.6431 -0.7658 0.7658 0.6431 -3.4251 246.1095)" fill="none" stroke="#FFFFFF" stroke-width="2" stroke-miterlimit="10" width="68.75" height="114.133"/>
		
			<rect x="223.313" y="96.664" transform="matrix(0.6431 -0.7658 0.7658 0.6431 -43.2083 235.4265)" fill="none" stroke="#FFFFFF" stroke-width="2" stroke-miterlimit="10" width="15.278" height="134.803"/>
		
			<rect x="204.596" y="105.943" transform="matrix(0.6431 -0.7658 0.7658 0.6431 -64.1082 229.8142)" fill="none" stroke="#FFFFFF" stroke-width="2" stroke-miterlimit="10" width="19.771" height="155.473"/>
		
			<rect x="286.306" y="21.647" transform="matrix(-0.6431 0.7658 -0.7658 -0.6431 551.1648 -78.7936)" fill="none" stroke="#FFFFFF" stroke-width="2" stroke-miterlimit="10" width="15.278" height="134.803"/>
		
			<rect x="300.53" y="-8.302" transform="matrix(-0.6431 0.7658 -0.7658 -0.6431 563.2061 -123.6348)" fill="none" stroke="#FFFFFF" stroke-width="2" stroke-miterlimit="10" width="19.771" height="155.473"/>
	</g>
	<polygon fill="none" stroke="#FFFFFF" stroke-width="2" stroke-miterlimit="10" points="334.529,159.507 307.367,191.853 
		291.608,190.356 330.328,144.244 	"/>
	
		<rect x="398.833" y="138.666" transform="matrix(0.6431 -0.7658 0.7658 0.6431 -45.7369 404.4091)" fill="none" stroke="#FFFFFF" stroke-width="2" stroke-miterlimit="10" width="24.265" height="225.206"/>
</g>
<g>
	
		<rect x="44.508" y="427.236" fill="none" stroke="#FFFFFF" stroke-width="2" stroke-miterlimit="10" width="323.388" height="56.758"/>
	
		<rect x="85.426" y="412.716" fill="none" stroke="#FFFFFF" stroke-width="2" stroke-miterlimit="10" width="242.871" height="6.6"/>
	
		<rect x="85.426" y="398.197" fill="none" stroke="#FFFFFF" stroke-width="2" stroke-miterlimit="10" width="242.871" height="6.6"/>
</g>
<g>
	
		<line fill="none" stroke="#FFFFFF" stroke-width="2" stroke-miterlimit="10" x1="159.942" y1="377.895" x2="258.302" y2="377.895"/>
	
		<line fill="none" stroke="#FFFFFF" stroke-width="2" stroke-miterlimit="10" x1="160.925" y1="257.895" x2="259.286" y2="257.895"/>
	<polyline fill="none" stroke="#FFFFFF" stroke-width="2" stroke-linejoin="round" stroke-miterlimit="10" points="231.068,257.895 
		209.122,377.895 187.314,257.895 	"/>
</g>
</svg>
