<?xml version="1.0" encoding="utf-8"?>
<!-- Generator: Adobe Illustrator 23.0.2, SVG Export Plug-In . SVG Version: 6.00 Build 0)  -->
<svg version="1.2" baseProfile="tiny" id="Layer_2" xmlns="http://www.w3.org/2000/svg" xmlns:xlink="http://www.w3.org/1999/xlink"
	 x="0px" y="0px" viewBox="0 0 512 512" xml:space="preserve">
<polyline fill="none" stroke="#FFFFFF" stroke-width="2" stroke-miterlimit="10" points="228.069,115.621 93.379,115.621 
	40,211.207 472,211.207 418.621,115.621 320.552,115.621 "/>
<rect x="40" y="211.207" fill="none" stroke="#FFFFFF" stroke-width="2" stroke-miterlimit="10" width="432" height="63.31"/>
<rect x="64.207" y="274.517" fill="none" stroke="#FFFFFF" stroke-width="2" stroke-miterlimit="10" width="383.586" height="202.345"/>
<polyline fill="none" stroke="#FFFFFF" stroke-width="2" stroke-miterlimit="10" points="215.655,153.483 180.297,153.483 
	170.345,173.345 341.655,173.345 331.703,153.483 307.517,153.483 "/>
<polygon fill="none" stroke="#FFFFFF" stroke-width="2" stroke-miterlimit="10" points="254.138,41.138 336.069,69.69 
	300.355,173.345 249.172,173.345 211.931,164.034 "/>
<g>
	
		<line fill="none" stroke="#FFFFFF" stroke-width="2" stroke-miterlimit="10" x1="273.262" y1="173.345" x2="225.386" y2="156.828"/>
	<line fill="none" stroke="#FFFFFF" stroke-width="2" stroke-miterlimit="10" x1="290.138" y1="170.862" x2="227.868" y2="149.38"/>
	
		<line fill="none" stroke="#FFFFFF" stroke-width="2" stroke-miterlimit="10" x1="292.621" y1="163.414" x2="250.834" y2="148.998"/>
	<line fill="none" stroke="#FFFFFF" stroke-width="2" stroke-miterlimit="10" x1="295.103" y1="155.966" x2="253.316" y2="141.55"/>
	
		<line fill="none" stroke="#FFFFFF" stroke-width="2" stroke-miterlimit="10" x1="297.586" y1="148.517" x2="255.799" y2="134.101"/>
	
		<rect x="232.461" y="129.276" transform="matrix(-0.9494 -0.3141 0.3141 -0.9494 426.7715 344.6857)" fill="none" stroke="#FFFFFF" stroke-width="2" stroke-miterlimit="10" width="17.379" height="17.379"/>
</g>
<g>
	
		<line fill="none" stroke="#FFFFFF" stroke-width="2" stroke-miterlimit="10" x1="300.069" y1="141.069" x2="237.799" y2="119.587"/>
	
		<line fill="none" stroke="#FFFFFF" stroke-width="2" stroke-miterlimit="10" x1="302.552" y1="133.621" x2="240.282" y2="112.139"/>
	
		<line fill="none" stroke="#FFFFFF" stroke-width="2" stroke-miterlimit="10" x1="305.034" y1="126.172" x2="263.247" y2="111.757"/>
	<line fill="none" stroke="#FFFFFF" stroke-width="2" stroke-miterlimit="10" x1="307.517" y1="118.724" x2="265.73" y2="104.308"/>
	<line fill="none" stroke="#FFFFFF" stroke-width="2" stroke-miterlimit="10" x1="310" y1="111.276" x2="268.213" y2="96.86"/>
	
		<rect x="244.875" y="92.034" transform="matrix(-0.9494 -0.3141 0.3141 -0.9494 462.667 275.9858)" fill="none" stroke="#FFFFFF" stroke-width="2" stroke-miterlimit="10" width="17.379" height="17.379"/>
	
		<rect x="257.289" y="54.793" transform="matrix(-0.9494 -0.3141 0.3141 -0.9494 498.5624 207.286)" fill="none" stroke="#FFFFFF" stroke-width="2" stroke-miterlimit="10" width="17.379" height="17.379"/>
</g>
<g>
	<line fill="none" stroke="#FFFFFF" stroke-width="2" stroke-miterlimit="10" x1="312.483" y1="103.828" x2="250.213" y2="82.346"/>
	<line fill="none" stroke="#FFFFFF" stroke-width="2" stroke-miterlimit="10" x1="314.965" y1="96.379" x2="252.696" y2="74.897"/>
	<line fill="none" stroke="#FFFFFF" stroke-width="2" stroke-miterlimit="10" x1="317.448" y1="88.931" x2="275.661" y2="74.515"/>
	<line fill="none" stroke="#FFFFFF" stroke-width="2" stroke-miterlimit="10" x1="319.931" y1="81.483" x2="278.144" y2="67.067"/>
	<line fill="none" stroke="#FFFFFF" stroke-width="2" stroke-miterlimit="10" x1="322.414" y1="74.034" x2="280.627" y2="59.619"/>
</g>
<polyline fill="none" stroke="#FFFFFF" stroke-width="2" stroke-miterlimit="10" points="181,312 249,312 217,312 217,432 183,432 
	251,432 291,432 223,432 277,432 257,312 289,312 221,312 261,312 329,312 297,312 277,432 263,432 331,432 "/>
</svg>
