<?xml version="1.0" encoding="utf-8"?>
<!-- Generator: Adobe Illustrator 23.0.2, SVG Export Plug-In . SVG Version: 6.00 Build 0)  -->
<svg version="1.2" baseProfile="tiny" id="Layer_1" xmlns="http://www.w3.org/2000/svg" xmlns:xlink="http://www.w3.org/1999/xlink"
	 x="0px" y="0px" viewBox="0 0 512 512" xml:space="preserve">
<g>
	<path fill="none" stroke="#FFFFFF" stroke-width="2" stroke-linejoin="round" stroke-miterlimit="10" d="M460.801,387.486
		c4.731-11.827,9.463-23.657,14.193-35.484c-4.336-1.971-8.674-3.943-13.011-5.914c-10.892,12.309-11.721,25.962-27.204,34.301
		c1.183,2.759,2.366,5.52,3.548,8.28c-7.918,10.074-13.962,22.262-21.29,33.118h-4.731c-18.38-16.053-22.181-46.948-42.581-61.505
		c-12.65-9.028-36.646-8.991-43.763-23.656c-4.248-6.847-14.71-68.238-15.376-83.978c16.558-9.461,33.12-18.926,49.677-28.387
		c0.394-0.789,0.789-1.577,1.183-2.366c-20.106,5.519-40.217,11.04-60.322,16.559c-11.813-19.76,17.132-42.671,27.204-60.322
		c-13.798,12.615-27.6,25.234-41.398,37.849c-5.913-2.366-11.828-4.731-17.742-7.097V160.39h-1.183
		c-6.848,8.113-11.198,32.461-11.828,44.946c-6.702,0.394-13.406,0.789-20.107,1.183c-11.827-18.134-23.657-36.274-35.484-54.408
		c-0.789-0.394-1.577-0.789-2.366-1.183c8.673,20.894,17.349,41.794,26.021,62.688c-4.336,3.942-8.674,7.886-13.011,11.828
		c-23.121-1.031-36.377-13.67-56.774-17.742c8.704,10.532,32.379,24.086,46.129,28.387c2.713,5.9,1.569,13.059,1.183,22.473
		c-13.009,6.308-26.023,12.617-39.032,18.925c-2.366-0.394-4.731-0.789-7.097-1.183c-9.66-41.744-32.031-67.434-42.581-104.086
		c-7.068-24.555-6.91-38.545-18.925-55.591c24.681-27.071,28.965-32.256,11.828-66.236c2.824-2.697,6.258-3.406,10.645-4.731
		c0.394-1.183,0.789-2.366,1.183-3.548v-8.28c-8.026,3.147-9.516,2.138-20.107,1.183c-6.313-14.083-30.65-26.321-43.763-7.097
		c-1.971,6.308-3.943,12.617-5.914,18.925c-4.631,5.393-12.897,7.288-16.559,14.194c0.394,3.942,0.789,7.886,1.183,11.828
		c-8.698,30.626,9.127,23.492,16.559,40.215v17.742c1.375,7.05,6.689,10.826,8.28,15.376c-1.183,6.308-2.366,12.617-3.548,18.925
		c2.759,5.519,5.52,11.04,8.28,16.559c6.756,3.905,8.894,3.004,15.376-1.183h1.183c3.728,27.363,5.033,56.391,14.193,79.247
		c7.373,18.395,21.542,38.396,26.021,59.14c2.627,12.165-6.987,23.468-9.462,31.935c-1.971,16.163-3.943,32.331-5.914,48.494
		c6.702,1.183,13.405,2.366,20.107,3.548c6.176,14.738,4.137,26.435,15.376,35.484c-0.672,12.572-5.555,18.649-9.462,28.387
		c93.736,93.933,202.159-19.418,353.655,0C472.88,443.886,479.081,402.389,460.801,387.486z M166.286,282.218
		c10.644-3.154,21.291-6.309,31.935-9.462h5.914c1.183,3.942,2.366,7.886,3.548,11.828c-7.726,7.31-16.424,12.117-26.021,17.742
		C176.537,295.623,171.411,288.92,166.286,282.218z M219.511,333.078c-1.577,1.183-3.154,2.366-4.731,3.548
		c-5.131-6.824-17.616-13.678-27.204-15.376c-0.789-1.183-1.577-2.366-2.366-3.548c0.816-13.177,11.527-11.876,20.107-16.559
		c5.05,2.18,4.643,2.516,4.731,9.462c4.228,2.531,6.134,3.792,11.828,2.366C226.603,319.39,221.769,326.467,219.511,333.078z"/>
</g>
<polyline fill="none" stroke="#FFFFFF" stroke-width="2" stroke-miterlimit="10" points="181,354 249,354 217,354 217,474 183,474 
	251,474 291,474 223,474 257,474 257,354 289,354 221,354 261,354 329,354 297,354 297,474 263,474 331,474 "/>
</svg>
