<?xml version="1.0" encoding="utf-8"?>
<!-- Generator: Adobe Illustrator 23.0.2, SVG Export Plug-In . SVG Version: 6.00 Build 0)  -->
<svg version="1.2" baseProfile="tiny" id="Layer_1" xmlns="http://www.w3.org/2000/svg" xmlns:xlink="http://www.w3.org/1999/xlink"
	 x="0px" y="0px" viewBox="0 0 512 512" xml:space="preserve">
<path fill="#FFFFFF" d="M256.415,20.209l8.686,17.543l0.467,0.942l1.041,0.15l19.376,2.79l-14,13.682l-0.752,0.735l0.179,1.036
	l3.334,19.289l-17.339-9.087l-0.931-0.488l-0.93,0.49l-17.315,9.132l3.284-19.298l0.176-1.037l-0.754-0.733L226.902,41.71
	l19.368-2.84l1.04-0.153l0.464-0.943L256.415,20.209 M256.41,15.69L245.98,36.891l-23.378,3.428l16.941,16.47l-3.964,23.293
	l20.899-11.022l20.928,10.968l-4.024-23.283l16.898-16.515l-23.387-3.367L256.41,15.69L256.41,15.69z"/>
<path fill="#FFFFFF" d="M138.464,51.591l16.294,10.849l0.875,0.583l0.976-0.391l18.175-7.272l-5.283,18.849l-0.284,1.012
	l0.673,0.808l12.532,15.038l-19.559,0.8l-1.051,0.043l-0.56,0.89l-10.429,16.566l-6.805-18.355l-0.366-0.986l-1.019-0.258
	l-18.978-4.8l15.353-12.144l0.825-0.652l-0.07-1.049L138.464,51.591 M136.2,47.68l1.569,23.576l-18.532,14.658l22.907,5.793
	l8.214,22.154l12.588-19.995l23.608-0.966l-15.127-18.151l6.377-22.751l-21.937,8.777L136.2,47.68L136.2,47.68z"/>
<path fill="#FFFFFF" d="M85.345,122.849l4.849,18.965l0.26,1.019l0.987,0.363l18.372,6.757l-16.539,10.472l-0.888,0.563l-0.04,1.051
	L91.597,181.6l-15.071-12.493l-0.809-0.671l-1.012,0.286l-18.835,5.332l7.225-18.193l0.388-0.977l-0.585-0.874l-10.892-16.266
	l19.536,1.249l1.049,0.067l0.65-0.826L85.345,122.849 M86.279,118.428l-14.609,18.57l-23.58-1.507l13.146,19.633l-8.72,21.96
	l22.734-6.436l18.19,15.079l0.904-23.611l19.962-12.64l-22.176-8.156L86.279,118.428L86.279,118.428z"/>
<path fill="#FFFFFF" d="M41.633,226.015l13.682,14l0.735,0.752l1.036-0.179l19.289-3.334l-9.087,17.339l-0.488,0.931l0.49,0.93
	l9.132,17.315l-19.298-3.284l-1.037-0.176l-0.733,0.754L41.71,285.098l-2.84-19.368l-0.153-1.04l-0.943-0.464l-17.565-8.641
	l17.543-8.686l0.942-0.467l0.15-1.041L41.633,226.015 M40.231,221.719l-3.367,23.387L15.69,255.59l21.202,10.429l3.428,23.378
	l16.47-16.941l23.293,3.964L69.06,255.521l10.968-20.928l-23.283,4.024L40.231,221.719L40.231,221.719z"/>
<path fill="#FFFFFF" d="M91.068,329.578l0.8,19.559l0.043,1.051l0.89,0.56l16.566,10.429l-18.355,6.805l-0.986,0.366l-0.258,1.019
	l-4.8,18.978l-12.144-15.353l-0.652-0.825l-1.049,0.07l-19.532,1.3l10.849-16.294l0.583-0.875l-0.391-0.976l-7.272-18.175
	l18.849,5.283l1.012,0.284l0.808-0.673L91.068,329.578 M92.9,325.447l-18.151,15.127l-22.751-6.377l8.777,21.937L47.68,375.8
	l23.576-1.569l14.658,18.532l5.793-22.907l22.154-8.214l-19.995-12.588L92.9,325.447L92.9,325.447z"/>
<path fill="#FFFFFF" d="M149.953,402.186l10.472,16.539l0.563,0.888l1.051,0.04l19.561,0.749l-12.493,15.071l-0.671,0.809
	l0.286,1.012l5.332,18.835l-18.193-7.225l-0.977-0.388l-0.874,0.585l-16.266,10.892l1.249-19.536l0.067-1.049l-0.826-0.65
	l-15.385-12.104l18.965-4.849l1.019-0.26l0.363-0.987L149.953,402.186 M149.475,397.693l-8.156,22.176l-22.891,5.853l18.57,14.609
	l-1.507,23.58l19.633-13.146l21.96,8.72l-6.436-22.734l15.079-18.19l-23.611-0.904L149.475,397.693L149.475,397.693z"/>
<path fill="#FFFFFF" d="M273.769,435.577l-3.284,19.298l-0.176,1.037l0.754,0.733l14.035,13.646l-19.368,2.84l-1.04,0.153
	l-0.464,0.943l-8.641,17.565l-8.686-17.543l-0.467-0.942l-1.041-0.15l-19.376-2.79l14-13.682l0.752-0.735l-0.179-1.036
	l-3.334-19.289l17.339,9.087l0.931,0.488l0.93-0.49L273.769,435.577 M276.42,431.917l-20.899,11.022l-20.928-10.968l4.024,23.283
	l-16.898,16.514l23.387,3.367l10.484,21.174l10.429-21.202l23.378-3.428l-16.941-16.47L276.42,431.917L276.42,431.917z"/>
<path fill="#FFFFFF" d="M361.177,402.634l6.805,18.354l0.366,0.986l1.019,0.258l18.978,4.8l-15.353,12.144l-0.825,0.652l0.07,1.049
	l1.3,19.532l-16.294-10.849l-0.875-0.583l-0.976,0.391l-18.175,7.272l5.283-18.849l0.284-1.012l-0.673-0.808l-12.532-15.038
	l19.559-0.8l1.051-0.043l0.56-0.89L361.177,402.634 M361.643,398.139l-12.588,19.995l-23.608,0.966l15.127,18.151l-6.377,22.751
	l21.937-8.777L375.8,464.32l-1.569-23.576l18.532-14.658l-22.907-5.793L361.643,398.139L361.643,398.139z"/>
<path fill="#FFFFFF" d="M420.403,330.4l15.071,12.493l0.809,0.671l1.012-0.286l18.835-5.332l-7.225,18.193l-0.388,0.977l0.585,0.874
	l10.892,16.266l-19.536-1.249l-1.049-0.067l-0.65,0.826l-12.104,15.385l-4.849-18.965l-0.26-1.019l-0.987-0.363l-18.372-6.757
	l16.539-10.472l0.888-0.563l0.04-1.051L420.403,330.4 M418.559,326.274l-0.904,23.611l-19.962,12.64l22.176,8.156l5.853,22.891
	l14.609-18.57l23.58,1.507l-13.146-19.633l8.72-21.96l-22.734,6.436L418.559,326.274L418.559,326.274z"/>
<path fill="#FFFFFF" d="M470.29,226.902l2.84,19.368l0.153,1.04l0.943,0.464l17.565,8.641l-17.543,8.686l-0.942,0.467l-0.15,1.041
	l-2.79,19.376l-13.682-14l-0.735-0.752l-1.036,0.179l-19.289,3.334l9.087-17.339l0.488-0.931l-0.49-0.93l-9.132-17.315l19.298,3.284
	l1.037,0.176l0.733-0.754L470.29,226.902 M471.681,222.603l-16.47,16.941l-23.293-3.964l11.022,20.899l-10.968,20.928l23.283-4.024
	l16.514,16.898l3.367-23.387l21.174-10.484l-21.202-10.429L471.681,222.603L471.681,222.603z"/>
<path fill="#FFFFFF" d="M427.032,123.656l12.144,15.353l0.652,0.825l1.049-0.07l19.532-1.3l-10.849,16.294l-0.583,0.875l0.391,0.976
	l7.272,18.175l-18.849-5.283l-1.012-0.284l-0.808,0.673l-15.038,12.532l-0.8-19.559l-0.043-1.051l-0.89-0.56l-16.566-10.429
	l18.354-6.805l0.986-0.366l0.258-1.019L427.032,123.656 M426.086,119.237l-5.793,22.907l-22.154,8.214l19.995,12.588l0.966,23.608
	l18.151-15.127l22.751,6.377l-8.777-21.937L464.32,136.2l-23.576,1.569L426.086,119.237L426.086,119.237z"/>
<path fill="#FFFFFF" d="M374.256,52.006l-1.249,19.535l-0.067,1.049l0.826,0.65l15.385,12.104l-18.965,4.849l-1.019,0.26
	l-0.363,0.987l-6.757,18.372l-10.472-16.539l-0.563-0.888l-1.051-0.04L330.4,91.597l12.493-15.071l0.671-0.809l-0.286-1.012
	l-5.332-18.835l18.193,7.225l0.977,0.388l0.874-0.585L374.256,52.006 M376.51,48.09l-19.633,13.146l-21.96-8.72l6.436,22.734
	l-15.079,18.19l23.611,0.904l12.64,19.962l8.156-22.176l22.891-5.853l-18.57-14.609L376.51,48.09L376.51,48.09z"/>
<polyline fill="none" stroke="#FFFFFF" stroke-width="2" stroke-miterlimit="10" points="205,196 273,196 241,196 241,316 207,316 
	275,316 307,316 239,316 273,316 273,196 305,196 237,196 "/>
</svg>
