<?xml version="1.0" encoding="utf-8"?>
<!-- Generator: Adobe Illustrator 23.0.2, SVG Export Plug-In . SVG Version: 6.00 Build 0)  -->
<svg version="1.2" baseProfile="tiny" id="Layer_1" xmlns="http://www.w3.org/2000/svg" xmlns:xlink="http://www.w3.org/1999/xlink"
	 x="0px" y="0px" viewBox="0 0 512 512" xml:space="preserve">
<g>
	<polygon fill="none" stroke="#FFFFFF" stroke-width="2" stroke-miterlimit="10" points="22,130.579 491,130.579 490,381.5 
		21,381.5 	"/>
	<path fill="none" stroke="#FFFFFF" stroke-width="2" d="M210,168.5h281 M210,149.5h281 M259,207.5h-49 M491,207.5h-54 M491,187.5
		H210 M437,265.5h54 M210,265.5h25h24 M259,303.5H22 M491,303.5h-54 M259,284.5H22 M491,284.5h-54 M437,323.5h54 M22,323.5h237
		 M437,342.5h54 M22,342.5h237 M22,361.5h469 M437,245.5h54 M210,245.5h24.5H259 M437,226.5h54 M210,226.5h49"/>
	<polyline fill="none" stroke="#FFFFFF" stroke-width="2" stroke-miterlimit="10" points="209.5,130.5 209.5,265.494 22,265.494 	
		"/>
	<g>
		<g>
			<polygon fill="none" stroke="#FFFFFF" stroke-width="2" stroke-miterlimit="10" points="37.782,136.344 36.077,141.592 
				30.558,141.592 35.023,144.835 33.317,150.083 37.782,146.84 42.246,150.083 40.541,144.835 45.005,141.592 39.487,141.592 			
				"/>
			<polygon fill="none" stroke="#FFFFFF" stroke-width="2" stroke-miterlimit="10" points="37.782,162.927 36.077,168.175 
				30.558,168.175 35.023,171.418 33.317,176.667 37.782,173.423 42.246,176.667 40.541,171.418 45.005,168.175 39.487,168.175 			
				"/>
			<polygon fill="none" stroke="#FFFFFF" stroke-width="2" stroke-miterlimit="10" points="37.782,189.51 36.077,194.758 
				30.558,194.758 35.023,198.001 33.317,203.25 37.782,200.006 42.246,203.25 40.541,198.001 45.005,194.758 39.487,194.758 			"/>
			<polygon fill="none" stroke="#FFFFFF" stroke-width="2" stroke-miterlimit="10" points="37.782,216.093 36.077,221.341 
				30.558,221.341 35.023,224.584 33.317,229.833 37.782,226.589 42.246,229.833 40.541,224.584 45.005,221.341 39.487,221.341 			
				"/>
			<polygon fill="none" stroke="#FFFFFF" stroke-width="2" stroke-miterlimit="10" points="39.487,247.924 37.782,242.676 
				36.077,247.924 30.558,247.924 35.023,251.167 33.317,256.416 37.782,253.172 42.246,256.416 40.541,251.167 45.005,247.924 			
				"/>
			<polygon fill="none" stroke="#FFFFFF" stroke-width="2" stroke-miterlimit="10" points="53.415,149.635 51.71,154.883 
				46.192,154.883 50.656,158.127 48.951,163.375 53.415,160.131 57.879,163.375 56.174,158.127 60.638,154.883 55.12,154.883 			
				"/>
			<polygon fill="none" stroke="#FFFFFF" stroke-width="2" stroke-miterlimit="10" points="53.415,176.218 51.71,181.466 
				46.192,181.466 50.656,184.71 48.951,189.958 53.415,186.714 57.879,189.958 56.174,184.71 60.638,181.466 55.12,181.466 			"/>
			<polygon fill="none" stroke="#FFFFFF" stroke-width="2" stroke-miterlimit="10" points="53.415,202.801 51.71,208.049 
				46.192,208.049 50.656,211.293 48.951,216.541 53.415,213.297 57.879,216.541 56.174,211.293 60.638,208.049 55.12,208.049 			
				"/>
			<polygon fill="none" stroke="#FFFFFF" stroke-width="2" stroke-miterlimit="10" points="55.12,234.632 53.415,229.384 
				51.71,234.632 46.192,234.632 50.656,237.876 48.951,243.124 53.415,239.88 57.879,243.124 56.174,237.876 60.638,234.632 			"/>
			<polygon fill="none" stroke="#FFFFFF" stroke-width="2" stroke-miterlimit="10" points="69.048,136.344 67.343,141.592 
				61.825,141.592 66.289,144.835 64.584,150.083 69.048,146.84 73.513,150.083 71.807,144.835 76.272,141.592 70.754,141.592 			
				"/>
			<polygon fill="none" stroke="#FFFFFF" stroke-width="2" stroke-miterlimit="10" points="69.048,162.927 67.343,168.175 
				61.825,168.175 66.289,171.418 64.584,176.667 69.048,173.423 73.513,176.667 71.807,171.418 76.272,168.175 70.754,168.175 			
				"/>
			<polygon fill="none" stroke="#FFFFFF" stroke-width="2" stroke-miterlimit="10" points="69.048,189.51 67.343,194.758 
				61.825,194.758 66.289,198.001 64.584,203.25 69.048,200.006 73.513,203.25 71.807,198.001 76.272,194.758 70.754,194.758 			"/>
			<polygon fill="none" stroke="#FFFFFF" stroke-width="2" stroke-miterlimit="10" points="69.048,216.093 67.343,221.341 
				61.825,221.341 66.289,224.584 64.584,229.833 69.048,226.589 73.513,229.833 71.807,224.584 76.272,221.341 70.754,221.341 			
				"/>
			<polygon fill="none" stroke="#FFFFFF" stroke-width="2" stroke-miterlimit="10" points="70.754,247.924 69.048,242.676 
				67.343,247.924 61.825,247.924 66.289,251.167 64.584,256.416 69.048,253.172 73.513,256.416 71.807,251.167 76.272,247.924 			
				"/>
			<polygon fill="none" stroke="#FFFFFF" stroke-width="2" stroke-miterlimit="10" points="84.682,149.635 82.977,154.883 
				77.458,154.883 81.923,158.127 80.217,163.375 84.682,160.131 89.146,163.375 87.441,158.127 91.905,154.883 86.387,154.883 			
				"/>
			<polygon fill="none" stroke="#FFFFFF" stroke-width="2" stroke-miterlimit="10" points="84.682,176.218 82.977,181.466 
				77.458,181.466 81.923,184.71 80.217,189.958 84.682,186.714 89.146,189.958 87.441,184.71 91.905,181.466 86.387,181.466 			"/>
			<polygon fill="none" stroke="#FFFFFF" stroke-width="2" stroke-miterlimit="10" points="84.682,202.801 82.977,208.049 
				77.458,208.049 81.923,211.293 80.217,216.541 84.682,213.297 89.146,216.541 87.441,211.293 91.905,208.049 86.387,208.049 			
				"/>
			<polygon fill="none" stroke="#FFFFFF" stroke-width="2" stroke-miterlimit="10" points="86.387,234.632 84.682,229.384 
				82.977,234.632 77.458,234.632 81.923,237.876 80.217,243.124 84.682,239.88 89.146,243.124 87.441,237.876 91.905,234.632 			
				"/>
			<polygon fill="none" stroke="#FFFFFF" stroke-width="2" stroke-miterlimit="10" points="100.315,136.344 98.61,141.592 
				93.092,141.592 97.556,144.835 95.851,150.083 100.315,146.84 104.779,150.083 103.074,144.835 107.539,141.592 102.02,141.592 
							"/>
			<polygon fill="none" stroke="#FFFFFF" stroke-width="2" stroke-miterlimit="10" points="100.315,162.927 98.61,168.175 
				93.092,168.175 97.556,171.418 95.851,176.667 100.315,173.423 104.779,176.667 103.074,171.418 107.539,168.175 102.02,168.175 
							"/>
			<polygon fill="none" stroke="#FFFFFF" stroke-width="2" stroke-miterlimit="10" points="100.315,189.51 98.61,194.758 
				93.092,194.758 97.556,198.001 95.851,203.25 100.315,200.006 104.779,203.25 103.074,198.001 107.539,194.758 102.02,194.758 
							"/>
			<polygon fill="none" stroke="#FFFFFF" stroke-width="2" stroke-miterlimit="10" points="100.315,216.093 98.61,221.341 
				93.092,221.341 97.556,224.584 95.851,229.833 100.315,226.589 104.779,229.833 103.074,224.584 107.539,221.341 102.02,221.341 
							"/>
			<polygon fill="none" stroke="#FFFFFF" stroke-width="2" stroke-miterlimit="10" points="102.02,247.924 100.315,242.676 
				98.61,247.924 93.092,247.924 97.556,251.167 95.851,256.416 100.315,253.172 104.779,256.416 103.074,251.167 107.539,247.924 
							"/>
			<polygon fill="none" stroke="#FFFFFF" stroke-width="2" stroke-miterlimit="10" points="115.948,149.635 114.243,154.883 
				108.725,154.883 113.189,158.127 111.484,163.375 115.948,160.131 120.413,163.375 118.708,158.127 123.172,154.883 
				117.654,154.883 			"/>
			<polygon fill="none" stroke="#FFFFFF" stroke-width="2" stroke-miterlimit="10" points="115.948,176.218 114.243,181.466 
				108.725,181.466 113.189,184.71 111.484,189.958 115.948,186.714 120.413,189.958 118.708,184.71 123.172,181.466 
				117.654,181.466 			"/>
			<polygon fill="none" stroke="#FFFFFF" stroke-width="2" stroke-miterlimit="10" points="115.948,202.801 114.243,208.049 
				108.725,208.049 113.189,211.293 111.484,216.541 115.948,213.297 120.413,216.541 118.708,211.293 123.172,208.049 
				117.654,208.049 			"/>
			<polygon fill="none" stroke="#FFFFFF" stroke-width="2" stroke-miterlimit="10" points="117.654,234.632 115.948,229.384 
				114.243,234.632 108.725,234.632 113.189,237.876 111.484,243.124 115.948,239.88 120.413,243.124 118.708,237.876 
				123.172,234.632 			"/>
			<polygon fill="none" stroke="#FFFFFF" stroke-width="2" stroke-miterlimit="10" points="131.582,136.344 129.877,141.592 
				124.358,141.592 128.823,144.835 127.117,150.083 131.582,146.84 136.046,150.083 134.341,144.835 138.805,141.592 
				133.287,141.592 			"/>
			<polygon fill="none" stroke="#FFFFFF" stroke-width="2" stroke-miterlimit="10" points="131.582,162.927 129.877,168.175 
				124.358,168.175 128.823,171.418 127.117,176.667 131.582,173.423 136.046,176.667 134.341,171.418 138.805,168.175 
				133.287,168.175 			"/>
			<polygon fill="none" stroke="#FFFFFF" stroke-width="2" stroke-miterlimit="10" points="131.582,189.51 129.877,194.758 
				124.358,194.758 128.823,198.001 127.117,203.25 131.582,200.006 136.046,203.25 134.341,198.001 138.805,194.758 
				133.287,194.758 			"/>
			<polygon fill="none" stroke="#FFFFFF" stroke-width="2" stroke-miterlimit="10" points="131.582,216.093 129.877,221.341 
				124.358,221.341 128.823,224.584 127.117,229.833 131.582,226.589 136.046,229.833 134.341,224.584 138.805,221.341 
				133.287,221.341 			"/>
			<polygon fill="none" stroke="#FFFFFF" stroke-width="2" stroke-miterlimit="10" points="133.287,247.924 131.582,242.676 
				129.877,247.924 124.358,247.924 128.823,251.167 127.117,256.416 131.582,253.172 136.046,256.416 134.341,251.167 
				138.805,247.924 			"/>
			<polygon fill="none" stroke="#FFFFFF" stroke-width="2" stroke-miterlimit="10" points="147.215,149.635 145.51,154.883 
				139.992,154.883 144.456,158.127 142.751,163.375 147.215,160.131 151.679,163.375 149.974,158.127 154.438,154.883 
				148.92,154.883 			"/>
			<polygon fill="none" stroke="#FFFFFF" stroke-width="2" stroke-miterlimit="10" points="147.215,176.218 145.51,181.466 
				139.992,181.466 144.456,184.71 142.751,189.958 147.215,186.714 151.679,189.958 149.974,184.71 154.438,181.466 
				148.92,181.466 			"/>
			<polygon fill="none" stroke="#FFFFFF" stroke-width="2" stroke-miterlimit="10" points="147.215,202.801 145.51,208.049 
				139.992,208.049 144.456,211.293 142.751,216.541 147.215,213.297 151.679,216.541 149.974,211.293 154.438,208.049 
				148.92,208.049 			"/>
			<polygon fill="none" stroke="#FFFFFF" stroke-width="2" stroke-miterlimit="10" points="148.92,234.632 147.215,229.384 
				145.51,234.632 139.992,234.632 144.456,237.876 142.751,243.124 147.215,239.88 151.679,243.124 149.974,237.876 
				154.438,234.632 			"/>
			<polygon fill="none" stroke="#FFFFFF" stroke-width="2" stroke-miterlimit="10" points="162.848,136.344 161.143,141.592 
				155.625,141.592 160.089,144.835 158.384,150.083 162.848,146.84 167.313,150.083 165.607,144.835 170.072,141.592 
				164.554,141.592 			"/>
			<polygon fill="none" stroke="#FFFFFF" stroke-width="2" stroke-miterlimit="10" points="162.848,162.927 161.143,168.175 
				155.625,168.175 160.089,171.418 158.384,176.667 162.848,173.423 167.313,176.667 165.607,171.418 170.072,168.175 
				164.554,168.175 			"/>
			<polygon fill="none" stroke="#FFFFFF" stroke-width="2" stroke-miterlimit="10" points="162.848,189.51 161.143,194.758 
				155.625,194.758 160.089,198.001 158.384,203.25 162.848,200.006 167.313,203.25 165.607,198.001 170.072,194.758 
				164.554,194.758 			"/>
			<polygon fill="none" stroke="#FFFFFF" stroke-width="2" stroke-miterlimit="10" points="162.848,216.093 161.143,221.341 
				155.625,221.341 160.089,224.584 158.384,229.833 162.848,226.589 167.313,229.833 165.607,224.584 170.072,221.341 
				164.554,221.341 			"/>
			<polygon fill="none" stroke="#FFFFFF" stroke-width="2" stroke-miterlimit="10" points="164.554,247.924 162.848,242.676 
				161.143,247.924 155.625,247.924 160.089,251.167 158.384,256.416 162.848,253.172 167.313,256.416 165.607,251.167 
				170.072,247.924 			"/>
			<polygon fill="none" stroke="#FFFFFF" stroke-width="2" stroke-miterlimit="10" points="175.723,158.127 174.017,163.375 
				178.482,160.131 182.946,163.375 181.241,158.127 185.705,154.883 180.187,154.883 178.482,149.635 176.777,154.883 
				171.258,154.883 			"/>
			<polygon fill="none" stroke="#FFFFFF" stroke-width="2" stroke-miterlimit="10" points="178.482,176.218 176.777,181.466 
				171.258,181.466 175.723,184.71 174.017,189.958 178.482,186.714 182.946,189.958 181.241,184.71 185.705,181.466 
				180.187,181.466 			"/>
			<polygon fill="none" stroke="#FFFFFF" stroke-width="2" stroke-miterlimit="10" points="178.482,202.801 176.777,208.049 
				171.258,208.049 175.723,211.293 174.017,216.541 178.482,213.297 182.946,216.541 181.241,211.293 185.705,208.049 
				180.187,208.049 			"/>
			<polygon fill="none" stroke="#FFFFFF" stroke-width="2" stroke-miterlimit="10" points="180.187,234.632 178.482,229.384 
				176.777,234.632 171.258,234.632 175.723,237.876 174.017,243.124 178.482,239.88 182.946,243.124 181.241,237.876 
				185.705,234.632 			"/>
		</g>
		<g>
			<g>
				<g>
					<polygon fill="none" stroke="#FFFFFF" stroke-width="2" stroke-miterlimit="10" points="191.356,144.835 189.651,150.083 
						194.115,146.84 198.579,150.083 196.874,144.835 201.339,141.592 195.82,141.592 194.115,136.344 192.41,141.592 
						186.892,141.592 					"/>
					<polygon fill="none" stroke="#FFFFFF" stroke-width="2" stroke-miterlimit="10" points="194.115,162.927 192.41,168.175 
						186.892,168.175 191.356,171.418 189.651,176.667 194.115,173.423 198.579,176.667 196.874,171.418 201.339,168.175 
						195.82,168.175 					"/>
					<polygon fill="none" stroke="#FFFFFF" stroke-width="2" stroke-miterlimit="10" points="194.115,189.51 192.41,194.758 
						186.892,194.758 191.356,198.001 189.651,203.25 194.115,200.006 198.579,203.25 196.874,198.001 201.339,194.758 
						195.82,194.758 					"/>
					<polygon fill="none" stroke="#FFFFFF" stroke-width="2" stroke-miterlimit="10" points="195.82,221.341 194.115,216.093 
						192.41,221.341 186.892,221.341 191.356,224.584 189.651,229.833 194.115,226.589 198.579,229.833 196.874,224.584 
						201.339,221.341 					"/>
				</g>
				<polygon fill="none" stroke="#FFFFFF" stroke-width="2" stroke-miterlimit="10" points="196.874,251.167 201.339,247.924 
					195.82,247.924 194.115,242.676 192.41,247.924 186.892,247.924 191.356,251.167 189.651,256.416 194.115,253.172 
					198.579,256.416 				"/>
			</g>
		</g>
	</g>
</g>
<polyline fill="none" stroke="#FFFFFF" stroke-width="2" stroke-miterlimit="10" points="422,216 354,216 386,216 386,336 420,336 
	352,336 312,336 380,336 326,336 346,216 314,216 382,216 342,216 274,216 306,216 326,336 340,336 272,336 "/>
</svg>
